<svg xmlns="http://www.w3.org/2000/svg" viewBox="0 0 560.11 498.37"><defs><style>.cls-1{fill:#e20000;}.cls-2{fill:#939393;}</style></defs><title>full-helmet</title><g id="casque"><path class="cls-1" d="M279.5,648.5s-75-103-56-210,113-157,128-163,166-83,308,29l35,45,26,51,23,84-122,12-4,4,1,53L724,573l46,5s9.5,27.5,10.5,37.5-28,97-39,127c0,0-171-57-386-80C355.5,662.5,306.5,659.5,279.5,648.5Z" transform="translate(-220.42 -244.13)"/></g><g id="visière"><path class="cls-2" d="M746.5,452.5l-140,8s-10,4-23-13a182.65,182.65,0,0,0-25-27s-28-19-38,20l-10,36s-9,25,21,29l19,4s18-1,25,11l14,17s10,14,22,16,146,27,156,27h4Z" transform="translate(-220.42 -244.13)"/></g></svg>